<svg id="Слой_1" data-name="Слой 1" xmlns="http://www.w3.org/2000/svg" viewBox="0 0 136.01 136.01"><defs><style>.cls-1{fill:#cb9b97;}.cls-2{fill:#385f73;}.cls-3{fill:#fff;}</style></defs><title>Безымянный-2</title><circle class="cls-1" cx="68" cy="67.7" r="67.7"/>
<path class="cls-2" d="M54.12,95.52a25.22,25.22,0,0,0,50.43,0h0v-58a25.23,25.23,0,0,0-50.45,0v58Z">
<animateTransform attributeName="transform"
                          attributeType="XML"
                          type="rotate"
                          from="0 70 70"
                          to="360 70 70"
                          dur="6s"
                          repeatCount="indefinite">
</animateTransform>
</path>
<circle class="cls-3" cx="41.54" cy="41.24" r="1.39"/><circle class="cls-3" cx="47.11" cy="41.24" r="1.39"/><circle class="cls-3" cx="52.68" cy="41.24" r="1.39"/><path class="cls-3" d="M59.15,73.59,52.07,67.7l7.08-5.9a1.39,1.39,0,0,0-1.79-2.14l-8.35,7a1.38,1.38,0,0,0,0,2.13l8.35,7a1.39,1.39,0,0,0,1.79-2.14Z"/><path class="cls-3" d="M71.11,75.55a1.39,1.39,0,0,0,1.07.5,1.35,1.35,0,0,0,.89-.32l8.36-7a1.38,1.38,0,0,0,0-2.13l-8.36-7a1.39,1.39,0,1,0-1.78,2.14l7.07,5.9-7.07,5.89A1.39,1.39,0,0,0,71.11,75.55Z"/><path class="cls-3" d="M69.94,56.67a1.38,1.38,0,0,0-1.82.73L59.76,76.89a1.41,1.41,0,0,0,.73,1.84,1.54,1.54,0,0,0,.55.11A1.4,1.4,0,0,0,62.32,78L70.68,58.5A1.4,1.4,0,0,0,69.94,56.67Z"/><path class="cls-3" d="M100.37,81.66,97.7,81l1.42-2.36a1.39,1.39,0,0,0-.21-1.7l-3-3.06v-34a5.58,5.58,0,0,0-5.57-5.57H40.15a5.58,5.58,0,0,0-5.57,5.57V90a5.58,5.58,0,0,0,5.57,5.57h34l3,3a1.41,1.41,0,0,0,1.71.21L81.3,97.4l.67,2.66a1.4,1.4,0,0,0,1.35,1.06h5.57a1.39,1.39,0,0,0,1.35-1.06l.67-2.66,2.36,1.41A1.39,1.39,0,0,0,95,98.6l3.94-3.94a1.39,1.39,0,0,0,.21-1.7L97.7,90.6l2.67-.66a1.41,1.41,0,0,0,1.06-1.35V83A1.41,1.41,0,0,0,100.37,81.66Zm-63-41.82a2.79,2.79,0,0,1,2.79-2.78H90.29a2.79,2.79,0,0,1,2.78,2.78v5.57H37.36ZM73.21,92.76H40.15A2.79,2.79,0,0,1,37.36,90V48.2H93.07V72.91L90.91,74.2l-.67-2.66a1.39,1.39,0,0,0-1.35-1.06H83.32A1.4,1.4,0,0,0,82,71.54L81.3,74.2,79,72.79a1.41,1.41,0,0,0-1.71.21l-3.93,3.94a1.38,1.38,0,0,0-.21,1.7L74.51,81l-2.67.66a1.4,1.4,0,0,0-1,1.35v5.58a1.4,1.4,0,0,0,1,1.35l2.67.66ZM98.64,87.5l-2.39.6a1.37,1.37,0,0,0-1,.89,10.28,10.28,0,0,1-.42,1,1.37,1.37,0,0,0,.06,1.33l1.26,2.1-2.4,2.4L91.66,94.6a1.35,1.35,0,0,0-1.32-.06,9.63,9.63,0,0,1-1,.43,1.4,1.4,0,0,0-.89,1l-.59,2.39h-3.4l-.6-2.39a1.38,1.38,0,0,0-.89-1,10.36,10.36,0,0,1-1-.43,1.4,1.4,0,0,0-1.33.06l-2.1,1.26-2.4-2.4,1.26-2.1A1.43,1.43,0,0,0,77.37,90a10.36,10.36,0,0,1-.43-1,1.36,1.36,0,0,0-1-.89l-2.4-.6V84.1l2.4-.6a1.36,1.36,0,0,0,1-.89,10.36,10.36,0,0,1,.43-1,1.43,1.43,0,0,0-.06-1.33l-1.26-2.1,2.4-2.4L80.55,77a1.42,1.42,0,0,0,1.33.06,10.36,10.36,0,0,1,1-.43,1.38,1.38,0,0,0,.89-1l.6-2.39h3.4l.59,2.39a1.4,1.4,0,0,0,.89,1,9.63,9.63,0,0,1,1,.43A1.38,1.38,0,0,0,91.66,77l2.11-1.26,2.4,2.4-1.26,2.1a1.37,1.37,0,0,0-.06,1.33,10.28,10.28,0,0,1,.42,1,1.37,1.37,0,0,0,1,.89l2.39.6Z"/><path class="cls-3" d="M86.11,78.84a7,7,0,1,0,7,7A7,7,0,0,0,86.11,78.84Zm0,11.14a4.18,4.18,0,1,1,4.18-4.18A4.18,4.18,0,0,1,86.11,90Z"/></svg>