<svg id="Capa_1" data-name="Capa 1" xmlns="http://www.w3.org/2000/svg" viewBox="0 0 293.79 645"><defs><style>.cls-1{fill:#e06060;}</style></defs><title>contacts-sprite</title><path class="cls-1" d="M33.16,454.42q5.25,2.93,31.64,17.35T105.23,494c1,.57,3.21,1.81,6.56,3.72s6.12,3.45,8.33,4.62,4.89,2.5,8,4a52.92,52.92,0,0,0,8.87,3.28,30.54,30.54,0,0,0,7.72,1.1h.31a30.47,30.47,0,0,0,7.71-1.1,53.33,53.33,0,0,0,8.88-3.28c3.13-1.46,5.81-2.78,8-4s5-2.72,8.33-4.62,5.54-3.15,6.56-3.72q14.2-7.78,72.23-39.56a67.7,67.7,0,0,0,18.82-15q7.57-8.76,7.57-18.38,0-8-7.34-13.75a27.33,27.33,0,0,0-17.36-5.73H31.31q-11.88,0-18.29,6.33a21.35,21.35,0,0,0-6.4,15.83q0,7.67,8.48,16.61A71.08,71.08,0,0,0,33.16,454.42Z"/><path class="cls-1" d="M267.73,467.45q-50.61,27-76.85,42-8.79,5.12-14.27,8A99.11,99.11,0,0,1,162,523.26a54.63,54.63,0,0,1-17,3h-.31a54.69,54.69,0,0,1-17-3,98.47,98.47,0,0,1-14.58-5.85q-5.48-2.85-14.28-8-20.84-12-76.69-42A79.44,79.44,0,0,1,6.62,456.86V553.5q0,8,7.25,13.76A27.26,27.26,0,0,0,31.31,573H258.48a27.25,27.25,0,0,0,17.43-5.72q7.26-5.71,7.26-13.76V456.86A83.16,83.16,0,0,1,267.73,467.45Z"/><path class="cls-1" d="M215.84,205.92l-33.05-33.06c-6.58-6.56-17.48-6.36-24.3.46L141.84,190l-3.29-1.83c-10.51-5.83-24.9-13.81-40.05-29s-23.18-29.6-29-40.12c-.61-1.12-1.2-2.19-1.79-3.21l11.18-11.16,5.49-5.51c6.83-6.82,7-17.72.45-24.3L51.74,41.81c-6.56-6.56-17.47-6.36-24.3.46l-9.31,9.37.25.25a54.09,54.09,0,0,0-7.67,13.54A56.16,56.16,0,0,0,7.29,79.17c-4.36,36.18,12.17,69.25,57,114.12,62,62,112,57.33,114.17,57.11a56.43,56.43,0,0,0,13.77-3.46,53.45,53.45,0,0,0,13.49-7.65l.21.18,9.43-9.24C222.21,223.41,222.41,212.51,215.84,205.92Z"/></svg>