<svg id="Слой_1" data-name="Слой 1" xmlns="http://www.w3.org/2000/svg" viewBox="0 0 136 136"><defs><style>.cls-1{fill:#cb9b97;}.cls-2{fill:#385f73;}.cls-3{fill:#fff;}</style></defs><title>Безымянный-2</title><circle class="cls-1" cx="67.7" cy="67.7" r="67.7"/><path class="cls-2" d="M106.92,45.37a24,24,0,0,1-3.14,11.93c-.25.45-5.28,5.52-5.56,6s-35.47,36-35.79,36.46A20.55,20.55,0,0,1,46.16,108C34.48,108,25,97.75,25,85.18a23.63,23.63,0,0,1,6.19-16.1c.27-.29,35.41-35.75,35.7-36s5.52-5.36,5.93-5.7A20.11,20.11,0,0,1,85.78,22.6C97.45,22.6,106.92,32.79,106.92,45.37Z"/><path class="cls-3" d="M94,34.45H41.38a6.93,6.93,0,0,0-6.93,6.93V94a6.93,6.93,0,0,0,6.93,6.93H94A6.92,6.92,0,0,0,100.94,94V41.38A6.92,6.92,0,0,0,94,34.45ZM98.17,94A4.15,4.15,0,0,1,94,98.17H41.38A4.15,4.15,0,0,1,37.22,94V41.38a4.16,4.16,0,0,1,4.16-4.16H94a4.16,4.16,0,0,1,4.16,4.16V94Z"/><rect class="cls-3" x="39.99" y="45.53" width="20.78" height="2.77"/><rect class="cls-3" x="41.38" y="39.99" width="2.77" height="2.77"/><rect class="cls-3" x="46.92" y="39.99" width="2.77" height="2.77"/><rect class="cls-3" x="91.24" y="39.99" width="2.77" height="2.77"/><path class="cls-3" d="M92.63,56.61H42.76A2.77,2.77,0,0,0,40,59.38V89.86a2.77,2.77,0,0,0,2.77,2.77H92.63a2.77,2.77,0,0,0,2.77-2.77V59.38A2.77,2.77,0,0,0,92.63,56.61Zm0,33.25H42.76V59.38H92.63Z"/><path class="cls-3" d="M68.68,45.94a1.39,1.39,0,0,0-2,0L55.63,57l2,2L67.7,48.88,77.76,58.94l1.95-2Z"/><rect class="cls-3" x="74.62" y="45.53" width="19.39" height="2.77"/><path class="cls-3" d="M63.54,80.16V77.39H60.77v2.77a1,1,0,0,1,0,.25,1.27,1.27,0,0,1-1.39,1.14H56.61a1,1,0,0,1-.24,0,1.27,1.27,0,0,1-1.14-1.39V69.08a1,1,0,0,1,0-.25,1.27,1.27,0,0,1,1.38-1.13h2.77a1,1,0,0,1,.25,0,1.25,1.25,0,0,1,1.14,1.38v2.77h2.77v-3a4,4,0,0,0-4.16-3.91H56.61a.88.88,0,0,0-.23,0,4,4,0,0,0-3.92,4.15V80.4a4,4,0,0,0,4.15,3.92h3A4,4,0,0,0,63.54,80.16Z"/><rect class="cls-3" x="69.08" y="64.93" width="2.77" height="19.39"/><rect class="cls-3" x="76.01" y="64.93" width="2.77" height="19.39"/><rect class="cls-3" x="66.31" y="69.08" width="15.24" height="2.77"/><rect class="cls-3" x="66.31" y="77.39" width="15.24" height="2.77"/></svg>