<svg id="Слой_1" data-name="Слой 1" xmlns="http://www.w3.org/2000/svg" viewBox="0 0 136 136">
<defs>
<style>.cls-1{fill:#cb9b97;}.cls-2{fill:#385f73;}.cls-3{fill:#fff;}</style>
</defs>
<title>Безымянный-2</title>
<circle class="cls-1" cx="67.7" cy="67.7" r="67.7"/>
<path class="cls-2" d="M107.35,44.74a24,24,0,0,1-3.14,11.94c-.25.45-41.46,42.61-41.78,43A20.55,20.55,0,0,1,46.16,108C34.48,108,25,97.75,25,85.18a23.63,23.63,0,0,1,6.19-16.1c.27-.29,41.65-42,42.06-42.34A20.11,20.11,0,0,1,86.21,22C97.88,22,107.35,32.17,107.35,44.74Z"> 
    <animate dur="3s" repeatCount="indefinite" attributeName="d"
	    values="M107.35,44.74a24,24,0,0,1-3.14,11.94c-.25.45-41.46,42.61-41.78,43A20.55,20.55,0,0,1,46.16,108C34.48,108,25,97.75,25,85.18a23.63,23.63,0,0,1,6.19-16.1c.27-.29,41.65-42,42.06-42.34A20.11,20.11,0,0,1,86.21,22C97.88,22,107.35,32.17,107.35,44.74Z;
                M107.35,44.74a24,24,0,0,1-3.14,11.94c-.25.45-33.47,34.63-33.79,35A20.53,20.53,0,0,1,54.14,100C42.47,100,33,89.77,33,77.19A23.57,23.57,0,0,1,39.2,61.1c.27-.3,33.66-34,34.07-34.36A20.11,20.11,0,0,1,86.21,22C97.88,22,107.35,32.17,107.35,44.74Z;
                M107.35,44.74a24,24,0,0,1-3.14,11.94c-.25.45-25.65,26.81-26,27.23A20.55,20.55,0,0,1,62,92.14C50.29,92.14,40.83,82,40.83,69.38A23.58,23.58,0,0,1,47,53.28c.27-.29,25.84-26.2,26.25-26.54A20.11,20.11,0,0,1,86.21,22C97.88,22,107.35,32.17,107.35,44.74Z;
                M107.35,44.74a24,24,0,0,1-3.14,11.94C104,57.13,89,73.05,88.67,73.47A20.53,20.53,0,0,1,72.4,81.71c-11.67,0-21.14-10.2-21.14-22.77a23.63,23.63,0,0,1,6.19-16.1c.27-.29,15.41-15.76,15.82-16.1A20.11,20.11,0,0,1,86.21,22C97.88,22,107.35,32.17,107.35,44.74Z;
                M107.35,44.74a24,24,0,0,1-3.14,11.94c-.25.45-5.31,6.46-5.63,6.88A20.54,20.54,0,0,1,82.31,71.8C70.64,71.8,61.17,61.6,61.17,49a23.63,23.63,0,0,1,6.19-16.1c.27-.29,5.5-5.85,5.91-6.19A20.11,20.11,0,0,1,86.21,22C97.88,22,107.35,32.17,107.35,44.74Z;
                M107.35,44.74a24,24,0,0,1-3.14,11.94c-.25.45-1.22,2.37-1.54,2.79A20.54,20.54,0,0,1,86.4,67.71c-11.68,0-21.14-10.2-21.14-22.77a23.63,23.63,0,0,1,6.19-16.1c.27-.29,1.41-1.76,1.82-2.1A20.11,20.11,0,0,1,86.21,22C97.88,22,107.35,32.17,107.35,44.74Z;
        
                M107.35,44.74a24,24,0,0,1-3.14,11.94c-.25.45-1.22,2.37-1.54,2.79A20.54,20.54,0,0,1,86.4,67.71c-11.68,0-21.14-10.2-21.14-22.77a23.63,23.63,0,0,1,6.19-16.1c.27-.29,1.41-1.76,1.82-2.1A20.11,20.11,0,0,1,86.21,22C97.88,22,107.35,32.17,107.35,44.74Z;
                M107.35,44.74a24,24,0,0,1-3.14,11.94c-.25.45-5.31,6.46-5.63,6.88A20.54,20.54,0,0,1,82.31,71.8C70.64,71.8,61.17,61.6,61.17,49a23.63,23.63,0,0,1,6.19-16.1c.27-.29,5.5-5.85,5.91-6.19A20.11,20.11,0,0,1,86.21,22C97.88,22,107.35,32.17,107.35,44.74Z;
                M107.35,44.74a24,24,0,0,1-3.14,11.94C104,57.13,89,73.05,88.67,73.47A20.53,20.53,0,0,1,72.4,81.71c-11.67,0-21.14-10.2-21.14-22.77a23.63,23.63,0,0,1,6.19-16.1c.27-.29,15.41-15.76,15.82-16.1A20.11,20.11,0,0,1,86.21,22C97.88,22,107.35,32.17,107.35,44.74Z;
                M107.35,44.74a24,24,0,0,1-3.14,11.94c-.25.45-25.65,26.81-26,27.23A20.55,20.55,0,0,1,62,92.14C50.29,92.14,40.83,82,40.83,69.38A23.58,23.58,0,0,1,47,53.28c.27-.29,25.84-26.2,26.25-26.54A20.11,20.11,0,0,1,86.21,22C97.88,22,107.35,32.17,107.35,44.74Z;
                M107.35,44.74a24,24,0,0,1-3.14,11.94c-.25.45-33.47,34.63-33.79,35A20.53,20.53,0,0,1,54.14,100C42.47,100,33,89.77,33,77.19A23.57,23.57,0,0,1,39.2,61.1c.27-.3,33.66-34,34.07-34.36A20.11,20.11,0,0,1,86.21,22C97.88,22,107.35,32.17,107.35,44.74Z;

                M107.35,44.74a24,24,0,0,1-3.14,11.94c-.25.45-41.46,42.61-41.78,43A20.55,20.55,0,0,1,46.16,108C34.48,108,25,97.75,25,85.18a23.63,23.63,0,0,1,6.19-16.1c.27-.29,41.65-42,42.06-42.34A20.11,20.11,0,0,1,86.21,22C97.88,22,107.35,32.17,107.35,44.74Z;
                M96.33,55.76A24.06,24.06,0,0,1,93.2,67.7c-.26.44-30.45,31.59-30.77,32A20.55,20.55,0,0,1,46.16,108C34.48,108,25,97.75,25,85.18a23.63,23.63,0,0,1,6.19-16.1c.27-.29,30.64-31,31-31.32A20.11,20.11,0,0,1,75.19,33C86.87,33,96.33,43.19,96.33,55.76Z;
                M90.21,62.34a23.94,23.94,0,0,1-3.13,11.93c-.26.45-24.33,25-24.65,25.44A20.55,20.55,0,0,1,46.16,108C34.48,108,25,97.75,25,85.18a23.63,23.63,0,0,1,6.19-16.1c.27-.29,24.52-24.41,24.92-24.74a20.11,20.11,0,0,1,12.94-4.77C80.75,39.57,90.21,49.76,90.21,62.34Z;
                M83.05,69.2a24,24,0,0,1-3.13,11.93c-.26.45-17.17,18.16-17.49,18.58A20.55,20.55,0,0,1,46.16,108C34.48,108,25,97.75,25,85.18a23.63,23.63,0,0,1,6.19-16.1C31.48,68.79,48.57,51.53,49,51.2a20.11,20.11,0,0,1,12.94-4.77C73.59,46.43,83.05,56.63,83.05,69.2Z;
                M75.89,76.66a24,24,0,0,1-3.13,11.93c-.26.45-10,10.7-10.33,11.12A20.55,20.55,0,0,1,46.16,108C34.48,108,25,97.75,25,85.18a23.63,23.63,0,0,1,6.19-16.1c.27-.29,10.2-10.09,10.6-10.42a20.09,20.09,0,0,1,12.94-4.77C66.43,53.89,75.89,64.09,75.89,76.66Z;
                M69.42,83.13a23.94,23.94,0,0,1-3.13,11.93c-.26.45-3.54,4.23-3.86,4.65A20.55,20.55,0,0,1,46.16,108C34.48,108,25,97.75,25,85.18a23.63,23.63,0,0,1,6.19-16.1c.27-.29,3.73-3.62,4.13-4a20.16,20.16,0,0,1,12.95-4.76C60,60.36,69.42,70.55,69.42,83.13Z;

                M69.42,83.13a23.94,23.94,0,0,1-3.13,11.93c-.26.45-3.54,4.23-3.86,4.65A20.55,20.55,0,0,1,46.16,108C34.48,108,25,97.75,25,85.18a23.63,23.63,0,0,1,6.19-16.1c.27-.29,3.73-3.62,4.13-4a20.16,20.16,0,0,1,12.95-4.76C60,60.36,69.42,70.55,69.42,83.13Z;
                M75.89,76.66a24,24,0,0,1-3.13,11.93c-.26.45-10,10.7-10.33,11.12A20.55,20.55,0,0,1,46.16,108C34.48,108,25,97.75,25,85.18a23.63,23.63,0,0,1,6.19-16.1c.27-.29,10.2-10.09,10.6-10.42a20.09,20.09,0,0,1,12.94-4.77C66.43,53.89,75.89,64.09,75.89,76.66Z;
                M83.05,69.2a24,24,0,0,1-3.13,11.93c-.26.45-17.17,18.16-17.49,18.58A20.55,20.55,0,0,1,46.16,108C34.48,108,25,97.75,25,85.18a23.63,23.63,0,0,1,6.19-16.1C31.48,68.79,48.57,51.53,49,51.2a20.11,20.11,0,0,1,12.94-4.77C73.59,46.43,83.05,56.63,83.05,69.2Z;
                M90.21,62.34a23.94,23.94,0,0,1-3.13,11.93c-.26.45-24.33,25-24.65,25.44A20.55,20.55,0,0,1,46.16,108C34.48,108,25,97.75,25,85.18a23.63,23.63,0,0,1,6.19-16.1c.27-.29,24.52-24.41,24.92-24.74a20.11,20.11,0,0,1,12.94-4.77C80.75,39.57,90.21,49.76,90.21,62.34Z;
                M96.33,55.76A24.06,24.06,0,0,1,93.2,67.7c-.26.44-30.45,31.59-30.77,32A20.55,20.55,0,0,1,46.16,108C34.48,108,25,97.75,25,85.18a23.63,23.63,0,0,1,6.19-16.1c.27-.29,30.64-31,31-31.32A20.11,20.11,0,0,1,75.19,33C86.87,33,96.33,43.19,96.33,55.76Z;
                M107.35,44.74a24,24,0,0,1-3.14,11.94c-.25.45-41.46,42.61-41.78,43A20.55,20.55,0,0,1,46.16,108C34.48,108,25,97.75,25,85.18a23.63,23.63,0,0,1,6.19-16.1c.27-.29,41.65-42,42.06-42.34A20.11,20.11,0,0,1,86.21,22C97.88,22,107.35,32.17,107.35,44.74Z;
                M107.35,44.74a24,24,0,0,1-3.14,11.94c-.25.45-41.46,42.61-41.78,43A20.55,20.55,0,0,1,46.16,108C34.48,108,25,97.75,25,85.18a23.63,23.63,0,0,1,6.19-16.1c.27-.29,41.65-42,42.06-42.34A20.11,20.11,0,0,1,86.21,22C97.88,22,107.35,32.17,107.35,44.74Z

        "/>
</path>

<path class="cls-3" d="M94,34.45H41.38a6.93,6.93,0,0,0-6.93,6.93V94a6.93,6.93,0,0,0,6.93,6.93H94A6.92,6.92,0,0,0,100.94,94V41.38A6.92,6.92,0,0,0,94,34.45ZM98.17,94A4.15,4.15,0,0,1,94,98.17H41.38A4.15,4.15,0,0,1,37.22,94V41.38a4.16,4.16,0,0,1,4.16-4.16H94a4.16,4.16,0,0,1,4.16,4.16V94Z"/>
<rect class="cls-3" x="39.99" y="45.53" width="20.78" height="2.77"/><rect class="cls-3" x="41.38" y="39.99" width="2.77" height="2.77"/><rect class="cls-3" x="46.92" y="39.99" width="2.77" height="2.77"/><rect class="cls-3" x="91.24" y="39.99" width="2.77" height="2.77"/><path class="cls-3" d="M92.63,56.61H42.76A2.77,2.77,0,0,0,40,59.38V89.86a2.77,2.77,0,0,0,2.77,2.77H92.63a2.77,2.77,0,0,0,2.77-2.77V59.38A2.77,2.77,0,0,0,92.63,56.61Zm0,33.25H42.76V59.38H92.63Z"/><path class="cls-3" d="M68.68,45.94a1.39,1.39,0,0,0-2,0L55.63,57l2,2L67.7,48.88,77.76,58.94l1.95-2Z"/><rect class="cls-3" x="74.62" y="45.53" width="19.39" height="2.77"/><path class="cls-3" d="M63.54,80.16V77.39H60.77v2.77a1,1,0,0,1,0,.25,1.27,1.27,0,0,1-1.39,1.14H56.61a1,1,0,0,1-.24,0,1.27,1.27,0,0,1-1.14-1.39V69.08a1,1,0,0,1,0-.25,1.27,1.27,0,0,1,1.38-1.13h2.77a1,1,0,0,1,.25,0,1.25,1.25,0,0,1,1.14,1.38v2.77h2.77v-3a4,4,0,0,0-4.16-3.91H56.61a.88.88,0,0,0-.23,0,4,4,0,0,0-3.92,4.15V80.4a4,4,0,0,0,4.15,3.92h3A4,4,0,0,0,63.54,80.16Z"/><rect class="cls-3" x="69.08" y="64.93" width="2.77" height="19.39"/><rect class="cls-3" x="76.01" y="64.93" width="2.77" height="19.39"/><rect class="cls-3" x="66.31" y="69.08" width="15.24" height="2.77"/>
<rect class="cls-3" x="66.31" y="77.39" width="15.24" height="2.77"/></svg>