<svg id="Слой_1" data-name="Слой 1" xmlns="http://www.w3.org/2000/svg" viewBox="0 0 136 136"><defs><style>.cls-1{fill:#cb9b97;}.cls-2{fill:#385f73;}.cls-3{fill:#fff;}</style></defs><title>Безымянный-2</title><circle class="cls-1" cx="67.7" cy="67.7" r="67.7"/><circle class="cls-2" cx="85.76" cy="79.12" r="28"/><path class="cls-3" d="M100.73,66.77V40.64a5.94,5.94,0,0,0-5.94-5.94H42.54a5.94,5.94,0,0,0-5.94,5.94V58.45A3.57,3.57,0,0,0,33,62V97.65a3.57,3.57,0,0,0,3.56,3.56H62.73a3.57,3.57,0,0,0,3.56-3.56h10a3.56,3.56,0,0,0,2.83-1.4,3.52,3.52,0,0,0,.6-3.1l-2.33-8.57h6.76V97.65a3.56,3.56,0,0,0,3.56,3.56h13.06a3.57,3.57,0,0,0,3.57-3.56V70.33A3.57,3.57,0,0,0,100.73,66.77ZM63.92,97.65a1.19,1.19,0,0,1-1.19,1.18H36.6a1.19,1.19,0,0,1-1.19-1.18V95.27H63.92Zm0-4.75H35.41V66.77H63.92Zm0-28.51H35.41V62a1.19,1.19,0,0,1,1.19-1.19H62.73A1.19,1.19,0,0,1,63.92,62ZM77.39,93.77a1.15,1.15,0,0,1-.2,1,1.17,1.17,0,0,1-.94.47h-10V92.9H77.15Zm-11.1-3.25V84.58h8.6l1.62,5.94Zm17.82-8.31H66.29V75.08H84.11Zm0-11.88v2.38H66.29V62a3.57,3.57,0,0,0-3.56-3.57H39V40.64a3.56,3.56,0,0,1,3.56-3.56H94.79a3.56,3.56,0,0,1,3.57,3.56V66.77H87.67A3.56,3.56,0,0,0,84.11,70.33Zm17.81,27.32a1.18,1.18,0,0,1-1.19,1.18H87.67a1.18,1.18,0,0,1-1.19-1.18V95.27h15.44Zm0-4.75H86.48V75.08h15.44Zm0-20.19H86.48V70.33a1.19,1.19,0,0,1,1.19-1.19h13.06a1.19,1.19,0,0,1,1.19,1.19Z"/><rect class="cls-3" x="39.18" y="81.02" width="6.72" height="2.38" transform="translate(-45.67 54.16) rotate(-45)"/><rect class="cls-3" x="41.96" y="79.83" width="20.16" height="2.38" transform="translate(-42.05 60.53) rotate(-45)"/><rect class="cls-3" x="45.81" y="72.71" width="10.08" height="2.38" transform="translate(-37.36 57.6) rotate(-45)"/><rect class="cls-3" x="88.81" y="80.43" width="8.4" height="2.38" transform="translate(-30.47 89.67) rotate(-45)"/><rect class="cls-3" x="91.19" y="85.18" width="8.4" height="2.38" transform="translate(-33.13 92.74) rotate(-45)"/><rect class="cls-3" x="63.63" y="51.33" width="10.08" height="2.38" transform="translate(-17.02 63.94) rotate(-45)"/><rect class="cls-3" x="74.32" y="48.95" width="10.08" height="2.38" transform="translate(-12.21 70.8) rotate(-45)"/><rect class="cls-3" x="67.68" y="57.27" width="6.72" height="2.38" transform="translate(-20.53 67.35) rotate(-45)"/><rect class="cls-3" x="73.61" y="43.02" width="6.74" height="2.38" transform="translate(-8.72 67.38) rotate(-45)"/><rect class="cls-3" x="41.35" y="39.45" width="2.38" height="2.38"/><rect class="cls-3" x="46.1" y="39.45" width="2.38" height="2.38"/><rect class="cls-3" x="50.85" y="39.45" width="2.38" height="2.38"/></svg>