<svg id="Layer_1" data-name="Layer 1" xmlns="http://www.w3.org/2000/svg" viewBox="0 0 78 78"><defs><style>.cls-1,.cls-2{fill:#e06060;}.cls-1{fill-rule:evenodd;}</style></defs><title>1</title><path class="cls-1" d="M33.1,21.79a50.09,50.09,0,0,1,3.56,3.58,10,10,0,0,1,1.27,1.84c.49.95,0,2-.8,2.05H31.84a4.09,4.09,0,0,1-3.37-1.37c-.74-.75-1.41-1.54-2.12-2.31a4.78,4.78,0,0,0-1-.85,1.1,1.1,0,0,0-1.76.43,5.52,5.52,0,0,0-.56,2.47c-.06,1.24-.43,1.57-1.69,1.63a13.59,13.59,0,0,1-7.57-1.63,16.68,16.68,0,0,1-5.09-4.77A63.75,63.75,0,0,1,2,10.91C1.6,10,1.91,9.46,3,9.44c1.72,0,3.45,0,5.18,0a1.51,1.51,0,0,1,1.43,1.07A32,32,0,0,0,13.08,17a5.58,5.58,0,0,0,1.32,1.46.81.81,0,0,0,1.37-.4,4.33,4.33,0,0,0,.31-1.37A20.65,20.65,0,0,0,16,11.93a2,2,0,0,0-1.7-1.83c-.5-.09-.43-.28-.18-.57a1.88,1.88,0,0,1,1.62-.81h6c.94.19,1.15.61,1.28,1.56v6.64c0,.37.18,1.46.84,1.7s.88-.25,1.2-.59a20.34,20.34,0,0,0,3.36-5.17c.41-.82.76-1.67,1.09-2.52a1.28,1.28,0,0,1,1.36-.92H36.6l.51,0c1,.17,1.24.59.94,1.53a14.42,14.42,0,0,1-2.29,4c-1,1.33-2,2.61-2.94,3.95s-.81,1.83.28,2.89Z"/><path class="cls-2" d="M26.17,44.66H22.45c-4.18,0-6.88,2.77-6.88,7.06V55H11.83a.58.58,0,0,0-.59.59v4.71a.58.58,0,0,0,.59.59h3.74V72.77a.58.58,0,0,0,.58.58H21a.58.58,0,0,0,.58-.58V60.86H26a.58.58,0,0,0,.58-.59V55.56a.59.59,0,0,0-.17-.42A.58.58,0,0,0,26,55H21.62V52.21c0-1.33.32-2,2.05-2h2.5a.58.58,0,0,0,.59-.59V45.24A.58.58,0,0,0,26.17,44.66Z"/><path class="cls-2" d="M74.72,9.25a12.54,12.54,0,0,1-3.7,1A6.46,6.46,0,0,0,73.85,6.7a13,13,0,0,1-4.1,1.57,6.46,6.46,0,0,0-11,5.88A18.31,18.31,0,0,1,45.47,7.41a6.46,6.46,0,0,0,2,8.61,6.53,6.53,0,0,1-2.92-.81v.08a6.47,6.47,0,0,0,5.17,6.33,6.77,6.77,0,0,1-1.7.22,6,6,0,0,1-1.21-.12,6.45,6.45,0,0,0,6,4.48,13,13,0,0,1-8,2.76c-.52,0-1,0-1.54-.09a18.26,18.26,0,0,0,9.89,2.9c11.86,0,18.34-9.83,18.34-18.35l0-.83A12.82,12.82,0,0,0,74.72,9.25Z"/><path class="cls-2" d="M49.41,46.1H68.59a3.23,3.23,0,0,1,3.32,3.31V68.59a3.24,3.24,0,0,1-3.32,3.32H49.41a3.24,3.24,0,0,1-3.32-3.32V49.41a3.23,3.23,0,0,1,3.32-3.31ZM64.9,49a1.17,1.17,0,0,0-1.16,1.17v2.78a1.16,1.16,0,0,0,1.16,1.16h2.91A1.17,1.17,0,0,0,69,52.91V50.13A1.18,1.18,0,0,0,67.81,49ZM69,57H66.72a7.74,7.74,0,0,1,.33,2.22,8,8,0,0,1-16,0A7.74,7.74,0,0,1,51.33,57H49v10.9a1,1,0,0,0,1,1H68a1,1,0,0,0,1-1V57ZM59,53.92a5,5,0,1,0,5.19,5A5.11,5.11,0,0,0,59,53.92Z"/></svg>