<svg id="Слой_1" data-name="Слой 1" xmlns="http://www.w3.org/2000/svg" viewBox="0 0 136.01 136.01">
    <defs>
        <style>.cls-1{fill:#cb9b97;}.cls-2{fill:#385f73;}.cls-3{fill:#fff;}</style>
    </defs>

    <title>Безымянный-2</title>

    <circle class="cls-1" cx="68" cy="67.7" r="67.7"/>

    <path class="cls-2" d="M22.35,44.74a24,24,0,0,0,3.14,11.94c.25.45,41.46,42.61,41.78,43A20.53,20.53,0,0,0,83.54,108c11.67,0,21.14-10.2,21.14-22.77a23.63,23.63,0,0,0-6.19-16.1c-.27-.29-41.65-42-42.06-42.34A20.11,20.11,0,0,0,43.49,22C31.82,22,22.35,32.17,22.35,44.74Z">
        <animate dur="3s" repeatCount="indefinite" attributeName="d"
	        values="M22.35,44.74a24,24,0,0,0,3.14,11.94c.25.45,41.46,42.61,41.78,43A20.53,20.53,0,0,0,83.54,108c11.67,0,21.14-10.2,21.14-22.77a23.63,23.63,0,0,0-6.19-16.1c-.27-.29-41.65-42-42.06-42.34A20.11,20.11,0,0,0,43.49,22C31.82,22,22.35,32.17,22.35,44.74Z;
                    M22.35,44.74a24,24,0,0,0,3.14,11.94c.25.45,33.47,34.63,33.79,35A20.53,20.53,0,0,0,75.55,100c11.68,0,21.14-10.19,21.14-22.77A23.57,23.57,0,0,0,90.5,61.1c-.27-.3-33.66-34-34.07-34.36A20.11,20.11,0,0,0,43.49,22C31.82,22,22.35,32.17,22.35,44.74Z;
                    M22.35,44.74a24,24,0,0,0,3.14,11.94c.25.45,25.65,26.81,26,27.23a20.55,20.55,0,0,0,16.28,8.23c11.67,0,21.13-10.19,21.13-22.76a23.58,23.58,0,0,0-6.19-16.1c-.27-.29-25.84-26.2-26.25-26.54A20.11,20.11,0,0,0,43.49,22C31.82,22,22.35,32.17,22.35,44.74Z;
                    M22.35,44.74a24,24,0,0,0,3.14,11.94c.25.45,15.21,16.37,15.53,16.79A20.56,20.56,0,0,0,57.3,81.71c11.67,0,21.14-10.2,21.14-22.77a23.59,23.59,0,0,0-6.2-16.1c-.27-.29-15.4-15.76-15.81-16.1A20.11,20.11,0,0,0,43.49,22C31.82,22,22.35,32.17,22.35,44.74Z;
                    M22.35,44.74a24,24,0,0,0,3.14,11.94c.25.45,5.3,6.46,5.63,6.88A20.53,20.53,0,0,0,47.39,71.8C59.06,71.8,68.53,61.6,68.53,49a23.63,23.63,0,0,0-6.19-16.1c-.27-.29-5.5-5.85-5.91-6.19A20.11,20.11,0,0,0,43.49,22C31.82,22,22.35,32.17,22.35,44.74Z;
                    M22.35,44.74a24,24,0,0,0,3.14,11.94c.25.45,1.22,2.37,1.54,2.79A20.53,20.53,0,0,0,43.3,67.71c11.67,0,21.14-10.2,21.14-22.77a23.63,23.63,0,0,0-6.19-16.1c-.27-.29-1.41-1.76-1.82-2.1A20.11,20.11,0,0,0,43.49,22C31.82,22,22.35,32.17,22.35,44.74Z;
                    
                    M22.35,44.74a24,24,0,0,0,3.14,11.94c.25.45,1.22,2.37,1.54,2.79A20.53,20.53,0,0,0,43.3,67.71c11.67,0,21.14-10.2,21.14-22.77a23.63,23.63,0,0,0-6.19-16.1c-.27-.29-1.41-1.76-1.82-2.1A20.11,20.11,0,0,0,43.49,22C31.82,22,22.35,32.17,22.35,44.74Z;
                    M22.35,44.74a24,24,0,0,0,3.14,11.94c.25.45,5.3,6.46,5.63,6.88A20.53,20.53,0,0,0,47.39,71.8C59.06,71.8,68.53,61.6,68.53,49a23.63,23.63,0,0,0-6.19-16.1c-.27-.29-5.5-5.85-5.91-6.19A20.11,20.11,0,0,0,43.49,22C31.82,22,22.35,32.17,22.35,44.74Z;
                    M22.35,44.74a24,24,0,0,0,3.14,11.94c.25.45,15.21,16.37,15.53,16.79A20.56,20.56,0,0,0,57.3,81.71c11.67,0,21.14-10.2,21.14-22.77a23.59,23.59,0,0,0-6.2-16.1c-.27-.29-15.4-15.76-15.81-16.1A20.11,20.11,0,0,0,43.49,22C31.82,22,22.35,32.17,22.35,44.74Z;
                    M22.35,44.74a24,24,0,0,0,3.14,11.94c.25.45,25.65,26.81,26,27.23a20.55,20.55,0,0,0,16.28,8.23c11.67,0,21.13-10.19,21.13-22.76a23.58,23.58,0,0,0-6.19-16.1c-.27-.29-25.84-26.2-26.25-26.54A20.11,20.11,0,0,0,43.49,22C31.82,22,22.35,32.17,22.35,44.74Z;
                    M22.35,44.74a24,24,0,0,0,3.14,11.94c.25.45,33.47,34.63,33.79,35A20.53,20.53,0,0,0,75.55,100c11.68,0,21.14-10.19,21.14-22.77A23.57,23.57,0,0,0,90.5,61.1c-.27-.3-33.66-34-34.07-34.36A20.11,20.11,0,0,0,43.49,22C31.82,22,22.35,32.17,22.35,44.74Z;
                    M22.35,44.74a24,24,0,0,0,3.14,11.94c.25.45,41.46,42.61,41.78,43A20.53,20.53,0,0,0,83.54,108c11.67,0,21.14-10.2,21.14-22.77a23.63,23.63,0,0,0-6.19-16.1c-.27-.29-41.65-42-42.06-42.34A20.11,20.11,0,0,0,43.49,22C31.82,22,22.35,32.17,22.35,44.74Z;                  
            
                    M22.35,44.74a24,24,0,0,0,3.14,11.94c.25.45,41.46,42.61,41.78,43A20.53,20.53,0,0,0,83.54,108c11.67,0,21.14-10.2,21.14-22.77a23.63,23.63,0,0,0-6.19-16.1c-.27-.29-41.65-42-42.06-42.34A20.11,20.11,0,0,0,43.49,22C31.82,22,22.35,32.17,22.35,44.74Z;
                    M33.37,55.76A24.06,24.06,0,0,0,36.5,67.7c.26.44,30.45,31.59,30.77,32A20.53,20.53,0,0,0,83.54,108c11.67,0,21.14-10.2,21.14-22.77a23.63,23.63,0,0,0-6.19-16.1c-.27-.29-30.64-31-31-31.32A20.11,20.11,0,0,0,54.51,33C42.83,33,33.37,43.19,33.37,55.76Z;
                    M39.49,62.34a23.94,23.94,0,0,0,3.13,11.93c.26.45,24.33,25,24.65,25.44A20.53,20.53,0,0,0,83.54,108c11.67,0,21.14-10.2,21.14-22.77a23.63,23.63,0,0,0-6.19-16.1C98.22,68.79,74,44.67,73.57,44.34a20.11,20.11,0,0,0-12.95-4.77C49,39.57,39.49,49.76,39.49,62.34Z;
                    M46.65,69.2a23.91,23.91,0,0,0,3.13,11.93C50,81.58,67,99.29,67.27,99.71A20.53,20.53,0,0,0,83.54,108c11.67,0,21.14-10.2,21.14-22.77a23.63,23.63,0,0,0-6.19-16.1c-.27-.29-17.36-17.55-17.76-17.88a20.11,20.11,0,0,0-12.94-4.77C56.11,46.43,46.65,56.63,46.65,69.2Z;
                    M53.81,76.66a24,24,0,0,0,3.13,11.93c.26.45,10,10.7,10.33,11.12A20.53,20.53,0,0,0,83.54,108c11.67,0,21.14-10.2,21.14-22.77a23.63,23.63,0,0,0-6.19-16.1c-.27-.29-10.2-10.09-10.6-10.42A20.11,20.11,0,0,0,75,53.89C63.27,53.89,53.81,64.09,53.81,76.66Z;
                    M60.28,83.13a23.94,23.94,0,0,0,3.13,11.93c.25.45,3.54,4.23,3.86,4.65A20.53,20.53,0,0,0,83.54,108c11.67,0,21.14-10.2,21.14-22.77a23.63,23.63,0,0,0-6.19-16.1c-.27-.29-3.73-3.62-4.13-4a20.16,20.16,0,0,0-13-4.76C69.74,60.36,60.28,70.55,60.28,83.13Z;

                    M60.28,83.13a23.94,23.94,0,0,0,3.13,11.93c.25.45,3.54,4.23,3.86,4.65A20.53,20.53,0,0,0,83.54,108c11.67,0,21.14-10.2,21.14-22.77a23.63,23.63,0,0,0-6.19-16.1c-.27-.29-3.73-3.62-4.13-4a20.16,20.16,0,0,0-13-4.76C69.74,60.36,60.28,70.55,60.28,83.13Z;
                    M53.81,76.66a24,24,0,0,0,3.13,11.93c.26.45,10,10.7,10.33,11.12A20.53,20.53,0,0,0,83.54,108c11.67,0,21.14-10.2,21.14-22.77a23.63,23.63,0,0,0-6.19-16.1c-.27-.29-10.2-10.09-10.6-10.42A20.11,20.11,0,0,0,75,53.89C63.27,53.89,53.81,64.09,53.81,76.66Z;
                    M46.65,69.2a23.91,23.91,0,0,0,3.13,11.93C50,81.58,67,99.29,67.27,99.71A20.53,20.53,0,0,0,83.54,108c11.67,0,21.14-10.2,21.14-22.77a23.63,23.63,0,0,0-6.19-16.1c-.27-.29-17.36-17.55-17.76-17.88a20.11,20.11,0,0,0-12.94-4.77C56.11,46.43,46.65,56.63,46.65,69.2Z;
                    M39.49,62.34a23.94,23.94,0,0,0,3.13,11.93c.26.45,24.33,25,24.65,25.44A20.53,20.53,0,0,0,83.54,108c11.67,0,21.14-10.2,21.14-22.77a23.63,23.63,0,0,0-6.19-16.1C98.22,68.79,74,44.67,73.57,44.34a20.11,20.11,0,0,0-12.95-4.77C49,39.57,39.49,49.76,39.49,62.34Z;
                    M33.37,55.76A24.06,24.06,0,0,0,36.5,67.7c.26.44,30.45,31.59,30.77,32A20.53,20.53,0,0,0,83.54,108c11.67,0,21.14-10.2,21.14-22.77a23.63,23.63,0,0,0-6.19-16.1c-.27-.29-30.64-31-31-31.32A20.11,20.11,0,0,0,54.51,33C42.83,33,33.37,43.19,33.37,55.76Z;
                    M22.35,44.74a24,24,0,0,0,3.14,11.94c.25.45,41.46,42.61,41.78,43A20.53,20.53,0,0,0,83.54,108c11.67,0,21.14-10.2,21.14-22.77a23.63,23.63,0,0,0-6.19-16.1c-.27-.29-41.65-42-42.06-42.34A20.11,20.11,0,0,0,43.49,22C31.82,22,22.35,32.17,22.35,44.74Z
            ">
        </animate>
    </path>
    
    <path class="cls-3" d="M97.54,34.16H38.46A6.88,6.88,0,0,0,31.59,41V80.26a6.88,6.88,0,0,0,6.87,6.88H58a40.46,40.46,0,0,1-2,11H51.17a1.57,1.57,0,0,0,0,3.14H84.84a1.57,1.57,0,0,0,0-3.14H80.08a40.08,40.08,0,0,1-2-11H97.54a6.89,6.89,0,0,0,6.88-6.88V41A6.88,6.88,0,0,0,97.54,34.16ZM34.72,41a3.75,3.75,0,0,1,3.74-3.74H97.54A3.75,3.75,0,0,1,101.29,41V76.8H34.72ZM59.22,98.1a44,44,0,0,0,1.87-11H74.92a43.52,43.52,0,0,0,1.87,11Zm42.07-17.84h0A3.75,3.75,0,0,1,97.54,84H38.46a3.75,3.75,0,0,1-3.74-3.75v-.32h66.57Z"/>
    <path class="cls-3" d="M88.89,70.54H55.16a1.57,1.57,0,0,0,0,3.13H88.89a1.57,1.57,0,1,0,0-3.13Z"/>
    <path class="cls-3" d="M47.37,70.54h-.25a1.57,1.57,0,1,0,0,3.13h.25a1.57,1.57,0,1,0,0-3.13Z"/>
    <path class="cls-3" d="M77.24,47.11,86.48,55,77.24,62.9a1.57,1.57,0,0,0,1,2.76,1.52,1.52,0,0,0,1-.38L89.91,56.2a1.56,1.56,0,0,0,0-2.38L79.28,44.73a1.57,1.57,0,0,0-2,2.38Z"/>
    <path class="cls-3" d="M46.1,56.2l10.63,9.08a1.5,1.5,0,0,0,1,.38,1.57,1.57,0,0,0,1-2.76L49.53,55l9.23-7.9a1.56,1.56,0,0,0-2-2.38L46.1,53.82a1.56,1.56,0,0,0,0,2.38Z"/>
    <path class="cls-3" d="M63.52,68.77a1.73,1.73,0,0,0,.49.08,1.58,1.58,0,0,0,1.49-1.09l8-24.54a1.57,1.57,0,0,0-3-1l-8,24.54A1.57,1.57,0,0,0,63.52,68.77Z"/>
</svg>