<svg id="Слой_1" data-name="Слой 1" xmlns="http://www.w3.org/2000/svg" viewBox="0 0 136.01 136.01"><defs><style>.cls-1{fill:#cb9b97;}.cls-2{fill:#385f73;}.cls-3{fill:#fff;}</style></defs><title>Безымянный-2</title><circle class="cls-1" cx="68" cy="67.7" r="67.7"/><path class="cls-2" d="M22.35,44.74a24,24,0,0,0,3.14,11.94c.25.45,41.46,42.61,41.78,43A20.53,20.53,0,0,0,83.54,108c11.67,0,21.14-10.2,21.14-22.77a23.63,23.63,0,0,0-6.19-16.1c-.27-.29-41.65-42-42.06-42.34A20.11,20.11,0,0,0,43.49,22C31.82,22,22.35,32.17,22.35,44.74Z"/><path class="cls-3" d="M97.54,34.16H38.46A6.88,6.88,0,0,0,31.59,41V80.26a6.88,6.88,0,0,0,6.87,6.88H58a40.46,40.46,0,0,1-2,11H51.17a1.57,1.57,0,0,0,0,3.14H84.84a1.57,1.57,0,0,0,0-3.14H80.08a40.08,40.08,0,0,1-2-11H97.54a6.89,6.89,0,0,0,6.88-6.88V41A6.88,6.88,0,0,0,97.54,34.16ZM34.72,41a3.75,3.75,0,0,1,3.74-3.74H97.54A3.75,3.75,0,0,1,101.29,41V76.8H34.72ZM59.22,98.1a44,44,0,0,0,1.87-11H74.92a43.52,43.52,0,0,0,1.87,11Zm42.07-17.84h0A3.75,3.75,0,0,1,97.54,84H38.46a3.75,3.75,0,0,1-3.74-3.75v-.32h66.57Z"/><path class="cls-3" d="M88.89,70.54H55.16a1.57,1.57,0,0,0,0,3.13H88.89a1.57,1.57,0,1,0,0-3.13Z"/><path class="cls-3" d="M47.37,70.54h-.25a1.57,1.57,0,1,0,0,3.13h.25a1.57,1.57,0,1,0,0-3.13Z"/><path class="cls-3" d="M77.24,47.11,86.48,55,77.24,62.9a1.57,1.57,0,0,0,1,2.76,1.52,1.52,0,0,0,1-.38L89.91,56.2a1.56,1.56,0,0,0,0-2.38L79.28,44.73a1.57,1.57,0,0,0-2,2.38Z"/><path class="cls-3" d="M46.1,56.2l10.63,9.08a1.5,1.5,0,0,0,1,.38,1.57,1.57,0,0,0,1-2.76L49.53,55l9.23-7.9a1.56,1.56,0,0,0-2-2.38L46.1,53.82a1.56,1.56,0,0,0,0,2.38Z"/><path class="cls-3" d="M63.52,68.77a1.73,1.73,0,0,0,.49.08,1.58,1.58,0,0,0,1.49-1.09l8-24.54a1.57,1.57,0,0,0-3-1l-8,24.54A1.57,1.57,0,0,0,63.52,68.77Z"/></svg>